<?xml version="1.0" standalone="no"?>
<!DOCTYPE svg PUBLIC "-//W3C//DTD SVG 20010904//EN"
 "http://www.w3.org/TR/2001/REC-SVG-20010904/DTD/svg10.dtd">
<svg version="1.0" xmlns="http://www.w3.org/2000/svg"
 width="1028.000000pt" height="218.000000pt" viewBox="0 0 1028.000000 218.000000"
 preserveAspectRatio="xMidYMid meet">

<g transform="translate(0.000000,218.000000) scale(0.100000,-0.100000)"
fill="#000000" stroke="none">
<path d="M0 1090 l0 -1090 5140 0 5140 0 0 1090 0 1090 -5140 0 -5140 0 0
-1090z m1846 722 c186 -39 332 -75 348 -85 15 -10 34 -33 43 -52 16 -33 14
-44 -76 -477 -51 -244 -97 -457 -102 -475 -15 -46 -62 -83 -107 -83 -20 0
-120 18 -220 39 l-184 39 36 -37 c20 -20 36 -44 36 -52 0 -22 -206 -246 -233
-253 -18 -5 -44 17 -159 134 -76 78 -137 144 -135 148 1 4 -71 79 -161 166
-130 128 -160 162 -151 173 9 11 7 19 -10 37 l-23 24 68 71 c64 68 68 71 89
57 12 -8 32 -12 44 -9 15 4 32 -5 62 -31 22 -21 44 -36 48 -34 5 2 32 29 61
61 l53 58 -44 45 c-37 37 -42 47 -32 62 9 15 7 21 -8 30 -30 19 -23 38 45 109
l64 68 26 -24 c14 -14 26 -19 26 -13 0 23 33 11 81 -29 27 -22 49 -39 49 -37
0 3 20 101 45 218 25 117 45 215 45 217 0 11 90 -5 376 -65z m1334 -457 l0
-45 -230 0 -230 0 0 45 0 45 230 0 230 0 0 -45z m515 15 c58 -30 84 -69 91
-137 8 -69 -25 -129 -89 -164 l-47 -25 59 -80 c32 -45 66 -93 76 -107 l17 -27
-54 0 -54 0 -70 100 -69 100 -67 0 -68 0 0 -100 0 -100 -45 0 -45 0 0 140 0
140 118 0 c136 1 185 10 218 41 34 32 34 97 -2 130 -24 23 -32 24 -180 27
l-154 3 0 46 0 45 158 -3 c145 -4 161 -6 207 -29z m651 -255 l102 -280 -45 -3
c-25 -2 -49 0 -53 5 -8 9 -94 238 -164 436 l-45 128 52 -3 52 -3 101 -280z
m326 163 c45 -116 158 -435 158 -444 0 -2 -22 -4 -48 -4 l-49 0 -102 278 c-55
152 -101 280 -101 285 0 4 21 7 48 7 l47 0 47 -122z m388 115 c0 -21 -165
-412 -171 -405 -4 4 -16 30 -27 58 l-19 52 61 151 61 151 48 0 c26 0 47 -3 47
-7z m560 -38 l0 -45 -210 0 -210 0 0 45 0 45 210 0 210 0 0 -45z m300 -195 l0
-240 150 0 150 0 0 -45 0 -45 -195 0 -195 0 0 285 0 285 45 0 45 0 0 -240z
m580 -45 l0 -285 -45 0 -45 0 0 285 0 285 45 0 45 0 0 -285z m380 0 l0 -285
-50 0 -50 0 0 120 0 120 -85 0 -85 0 0 45 0 45 85 0 85 0 0 120 0 120 50 0 50
0 0 -285z m440 282 c0 -2 45 -126 100 -277 55 -151 100 -278 100 -282 0 -4
-21 -8 -48 -8 l-47 0 -34 88 c-39 102 -171 471 -171 478 0 2 23 4 50 4 28 0
50 -1 50 -3z m770 -36 l0 -38 -94 -6 c-96 -5 -153 -25 -188 -64 -49 -54 -63
-165 -29 -231 39 -77 93 -102 221 -102 l90 0 0 -45 0 -45 -67 0 c-112 0 -186
18 -244 58 -161 114 -157 361 7 463 53 32 119 47 217 48 l87 1 0 -39z m240
-101 c0 -77 3 -140 8 -140 4 0 68 63 142 141 l135 141 59 -4 59 -3 -89 -96
c-49 -52 -140 -150 -201 -217 l-113 -121 0 -66 0 -65 -45 0 -45 0 0 285 0 285
45 0 45 0 0 -140z m1000 95 l0 -45 -102 0 c-79 0 -113 -5 -145 -19 -54 -25
-94 -85 -101 -151 l-5 -50 -50 0 -50 0 6 55 c10 100 59 170 149 216 53 27 106
37 211 38 l87 1 0 -45z m-5261 -374 l-61 -151 -50 0 c-36 0 -49 4 -45 13 3 6
42 104 88 215 l82 204 24 -65 24 -65 -62 -151z m3119 203 l19 -52 -61 -148
-61 -149 -48 -3 c-26 -2 -47 1 -47 5 0 21 165 412 171 406 4 -5 16 -31 27 -59z
m-4188 -164 l0 -190 -45 0 -45 0 0 190 0 190 45 0 45 0 0 -190z m2580 100 l0
-40 -190 0 -190 0 0 40 0 40 190 0 190 0 0 -40z m3743 -37 c-8 -67 -25 -104
-69 -153 -65 -71 -151 -100 -301 -100 l-73 0 0 44 0 44 113 4 c101 3 117 6
150 28 43 29 74 81 83 138 l7 42 48 0 49 0 -7 -47z m-674 -138 l91 -115 -58 1
-57 0 -72 88 -71 88 31 31 c17 17 34 29 38 26 4 -2 48 -56 98 -119z m-3029
-70 l0 -45 -210 0 -210 0 0 45 0 45 210 0 210 0 0 -45z"/>
<path d="M1495 1838 c-7 -22 -85 -398 -85 -413 0 -15 184 -178 212 -188 10 -3
83 -59 163 -123 111 -89 145 -122 145 -139 0 -15 -35 -61 -102 -135 -57 -62
-104 -115 -106 -119 -3 -8 190 -51 227 -51 30 0 58 16 71 40 18 33 200 922
194 946 -3 12 -14 30 -24 39 -11 10 -132 40 -326 81 -170 35 -321 67 -337 70
-18 4 -29 1 -32 -8z m374 -134 c173 -51 231 -267 108 -403 -35 -38 -115 -71
-175 -71 -167 0 -278 155 -232 322 16 58 85 126 150 148 68 24 83 24 149 4z"/>
<path d="M1727 1676 c-51 -19 -72 -37 -55 -47 26 -17 54 -8 81 26 31 39 29 40
-26 21z"/>
<path d="M1785 1649 c-38 -33 -34 -49 11 -49 17 0 23 8 27 37 4 20 5 39 3 41
-2 2 -20 -11 -41 -29z"/>
<path d="M1850 1653 c0 -10 -3 -28 -6 -39 -4 -17 0 -23 21 -28 15 -4 29 -5 32
-3 2 3 -4 23 -13 46 -17 42 -34 54 -34 24z"/>
<path d="M1918 1618 c9 -24 16 -44 17 -45 1 -2 16 -6 35 -9 l33 -7 -19 32
c-17 29 -63 71 -77 71 -3 0 2 -19 11 -42z"/>
<path d="M1617 1586 c-28 -44 -28 -55 1 -62 15 -3 33 -7 39 -10 14 -4 46 62
38 76 -3 4 -18 10 -35 12 -22 3 -33 -1 -43 -16z"/>
<path d="M1715 1548 c-16 -38 -12 -43 37 -52 36 -7 37 -6 47 31 12 42 4 53
-42 53 -22 0 -31 -7 -42 -32z"/>
<path d="M1825 1524 c-3 -20 -4 -38 -1 -41 2 -3 23 -7 45 -10 l41 -6 0 41 c0
33 -4 41 -22 46 -46 12 -56 7 -63 -30z"/>
<path d="M1940 1501 c0 -42 2 -44 53 -55 25 -6 27 -4 27 26 0 44 -10 56 -48
64 -32 6 -32 6 -32 -35z"/>
<path d="M1583 1464 c7 -44 4 -41 48 -49 l37 -7 0 40 c1 37 -2 40 -30 46 -57
11 -61 9 -55 -30z"/>
<path d="M1690 1446 c0 -25 6 -38 19 -46 44 -23 71 -8 71 40 0 23 -4 25 -52
34 -38 7 -38 7 -38 -28z"/>
<path d="M1806 1435 c-17 -45 -2 -65 49 -65 17 0 26 8 34 32 6 17 9 33 7 35
-2 3 -22 7 -44 10 -31 4 -40 2 -46 -12z"/>
<path d="M1917 1399 c-8 -19 -13 -35 -12 -37 1 -1 16 -7 33 -11 34 -10 54 4
66 47 6 17 3 22 -11 22 -10 0 -28 3 -40 6 -18 5 -25 0 -36 -27z"/>
<path d="M1617 1359 c16 -28 71 -79 85 -79 4 0 -2 21 -12 47 -17 45 -35 61
-73 62 -17 1 -17 0 0 -30z"/>
<path d="M1722 1328 l22 -43 10 33 c10 36 -1 52 -37 52 -16 0 -16 -3 5 -42z"/>
<path d="M1784 1325 c-10 -41 -1 -46 34 -18 26 19 30 28 20 34 -25 16 -48 9
-54 -16z"/>
<path d="M1842 1294 l-33 -34 26 0 c25 0 76 21 103 43 11 8 11 12 0 18 -27 18
-63 7 -96 -27z"/>
<path d="M1151 1449 c-30 -34 -40 -54 -33 -61 7 -7 24 5 53 37 24 26 44 52 44
58 0 26 -25 13 -64 -34z"/>
<path d="M1200 1410 c-39 -44 -70 -83 -68 -88 2 -4 69 -71 149 -150 l147 -143
49 53 c107 114 117 128 102 142 -8 7 -80 70 -160 139 l-147 126 -72 -79z"/>
<path d="M1137 1145 l-57 -64 32 -25 c18 -13 35 -23 39 -20 4 2 29 30 56 61
l50 58 -32 27 -31 27 -57 -64z"/>
<path d="M1533 1096 l-92 -101 92 -93 92 -93 93 98 c51 54 97 105 102 115 8
13 -7 30 -83 90 -50 41 -96 77 -102 80 -5 3 -51 -40 -102 -96z"/>
<path d="M837 1108 c-63 -73 -44 -90 24 -22 42 43 48 52 36 63 -12 9 -23 2
-60 -41z"/>
<path d="M882 1061 l-72 -79 154 -146 154 -146 80 87 c45 48 78 91 76 95 -9
15 -305 268 -313 268 -4 0 -40 -36 -79 -79z"/>
<path d="M1225 1070 l-59 -60 44 -37 c24 -21 49 -38 54 -38 6 0 18 38 27 85
25 120 13 129 -66 50z"/>
<path d="M1316 988 c-19 -100 -19 -98 -2 -98 8 0 49 -29 93 -64 71 -58 85 -65
157 -80 44 -9 81 -15 82 -13 2 2 -51 60 -116 129 -66 69 -120 130 -120 135 0
10 -62 73 -72 73 -3 0 -13 -37 -22 -82z"/>
<path d="M1751 899 c-97 -107 -101 -113 -85 -130 10 -11 22 -19 28 -19 11 0
198 202 205 221 3 10 -26 38 -40 39 -4 0 -52 -50 -108 -111z"/>
<path d="M1225 759 c-50 -55 -89 -102 -88 -105 1 -3 41 -46 88 -97 l87 -92 84
90 c46 50 93 101 103 116 l20 25 -81 65 c-44 35 -90 71 -102 81 -21 16 -23 14
-111 -83z"/>
<path d="M1448 568 c-111 -121 -113 -125 -98 -143 26 -31 33 -26 200 158 42
46 42 48 25 67 -10 11 -21 20 -25 20 -4 0 -50 -46 -102 -102z"/>
</g>
</svg>
