<?xml version="1.0" encoding="iso-8859-1"?>
<!-- Uploaded to: SVG Repo, www.svgrepo.com, Generator: SVG Repo Mixer Tools -->
<!DOCTYPE svg PUBLIC "-//W3C//DTD SVG 1.1//EN" "http://www.w3.org/Graphics/SVG/1.1/DTD/svg11.dtd">
<svg fill="#000000" height="800px" width="800px" version="1.1" id="Capa_1" xmlns="http://www.w3.org/2000/svg" xmlns:xlink="http://www.w3.org/1999/xlink" 
	 viewBox="0 0 474.781 474.781" xml:space="preserve">
<g>
	<path d="M60.96,118.153c31.767,0,57.611-25.844,57.611-57.611c0-31.767-25.844-57.611-57.611-57.611S3.349,28.775,3.349,60.541
		C3.349,92.308,29.193,118.153,60.96,118.153z"/>
	<path d="M472.523,306.934l-39.862-44.856h12.777c3.048,0,5.513-1.465,6.593-3.919c1.09-2.478,0.489-5.323-1.605-7.61
		l-42.516-46.471h15.859c2.861,0,5.147-1.366,6.115-3.654c0.965-2.281,0.362-4.86-1.615-6.898l-40.221-41.447h13.051
		c4.244,0,5.754-2.791,6.116-3.646c0.963-2.274,0.359-4.848-1.618-6.885l-41.16-42.389c-1.498-1.544-3.505-2.395-5.653-2.395
		c-2.133,0-4.212,0.883-5.699,2.417l-41.167,42.356c-1.975,2.037-2.579,4.613-1.615,6.891c0.968,2.286,3.254,3.651,6.116,3.651
		h13.06l-40.231,41.438c-1.977,2.039-2.581,4.62-1.614,6.904c0.969,2.291,3.255,3.658,6.114,3.658h15.848l-42.503,46.494
		c-2.094,2.287-2.695,5.126-1.609,7.595c1.078,2.449,3.543,3.911,6.595,3.911h12.775l-29.857,33.607l-46.332-50.607h24.155
		c2.847,0,5.131-1.379,6.108-3.689c0.979-2.312,0.378-4.914-1.607-6.962l-54.642-56.349h20.998c2.862,0,5.148-1.365,6.116-3.652
		c0.965-2.28,0.361-4.857-1.616-6.896l-54.108-55.749c-1.499-1.546-3.508-2.397-5.657-2.397c-2.131,0-4.209,0.882-5.696,2.416
		l-54.112,55.72c-1.977,2.038-2.58,4.618-1.614,6.901c0.969,2.29,3.255,3.656,6.115,3.656H114.1L59.459,234.43
		c-1.985,2.046-2.586,4.648-1.608,6.959c0.978,2.31,3.261,3.689,6.109,3.689h24.148L30.831,307.66
		c-2.086,2.278-2.689,5.095-1.615,7.536c1.07,2.431,3.538,3.882,6.601,3.882h20.82L2.259,380.182
		c-3.155,3.549-2.25,6.708-1.714,7.902c0.539,1.201,2.313,3.994,7.128,3.994H115.39v49.028l-4.52,1.641
		c-7.788,2.827-11.809,11.431-8.982,19.218c2.213,6.098,7.969,9.886,14.101,9.886c1.699,0,3.428-0.291,5.117-0.904l52.098-18.91
		c1.344-0.136,2.591-0.607,3.656-1.327l248.913-90.349c7.788-2.827,11.809-11.431,8.982-19.218
		c-2.827-7.788-11.432-11.809-19.218-8.982l-30.146,10.942v-24.025h81.717c3.306,0,5.963-1.524,7.11-4.078
		C475.368,312.437,474.735,309.422,472.523,306.934z M180.39,392.078h70.074l-70.074,25.435V392.078z M291.752,377.091
		l-51.604-58.013h10.262h10.554h71.426v40c0,1.077,0.217,2.104,0.605,3.043L291.752,377.091z"/>
</g>
</svg>